<mxfile host="app.diagrams.net" agent="Mozilla/5.0 (Windows NT 10.0; Win64; x64) AppleWebKit/537.36 (KHTML, like Gecko) Chrome/135.0.0.0 Safari/537.36" version="26.0.9">
  <diagram name="Page-1" id="_hZiYkdzC58pt04I9Uv6">
    <mxGraphModel dx="1434" dy="772" grid="1" gridSize="10" guides="1" tooltips="1" connect="1" arrows="1" fold="1" page="1" pageScale="1" pageWidth="827" pageHeight="1169" math="0" shadow="0">
      <root>
        <mxCell id="0" />
        <mxCell id="1" parent="0" />
        <mxCell id="2" value="Whatsapp Response to Standard Questions" style="whiteSpace=wrap;strokeWidth=2;" parent="1" vertex="1">
          <mxGeometry x="959" y="8" width="260" height="78" as="geometry" />
        </mxCell>
        <mxCell id="3" value="Dealer Requests Rate" style="whiteSpace=wrap;strokeWidth=2;" parent="1" vertex="1">
          <mxGeometry x="851" y="159" width="212" height="54" as="geometry" />
        </mxCell>
        <mxCell id="4" value="Product List" style="whiteSpace=wrap;strokeWidth=2;" parent="1" vertex="1">
          <mxGeometry x="685" y="390" width="145" height="54" as="geometry" />
        </mxCell>
        <mxCell id="5" value="Product Variants" style="whiteSpace=wrap;strokeWidth=2;" parent="1" vertex="1">
          <mxGeometry x="669" y="506" width="177" height="54" as="geometry" />
        </mxCell>
        <mxCell id="6" value="1. Red, Cotton, Super Deluxe" style="whiteSpace=wrap;strokeWidth=2;" parent="1" vertex="1">
          <mxGeometry x="8" y="663" width="260" height="78" as="geometry" />
        </mxCell>
        <mxCell id="7" value="2. Red, Cotton, Deluxe" style="whiteSpace=wrap;strokeWidth=2;" parent="1" vertex="1">
          <mxGeometry x="318" y="663" width="260" height="78" as="geometry" />
        </mxCell>
        <mxCell id="8" value="3. Red, Cotton, Prime" style="whiteSpace=wrap;strokeWidth=2;" parent="1" vertex="1">
          <mxGeometry x="628" y="663" width="260" height="78" as="geometry" />
        </mxCell>
        <mxCell id="9" value="4. Yellow, TerryCotton, Super Deluxe" style="whiteSpace=wrap;strokeWidth=2;" parent="1" vertex="1">
          <mxGeometry x="938" y="663" width="260" height="78" as="geometry" />
        </mxCell>
        <mxCell id="10" value="... up to 50 products" style="whiteSpace=wrap;strokeWidth=2;" parent="1" vertex="1">
          <mxGeometry x="1248" y="675" width="208" height="54" as="geometry" />
        </mxCell>
        <mxCell id="11" value="Daily Rate Change" style="whiteSpace=wrap;strokeWidth=2;" parent="1" vertex="1">
          <mxGeometry x="768" y="263" width="190" height="54" as="geometry" />
        </mxCell>
        <mxCell id="12" value="System Updates Rates" style="whiteSpace=wrap;strokeWidth=2;" parent="1" vertex="1">
          <mxGeometry x="981" y="390" width="217" height="54" as="geometry" />
        </mxCell>
        <mxCell id="13" value="Automation Responds with Rates" style="whiteSpace=wrap;strokeWidth=2;" parent="1" vertex="1">
          <mxGeometry x="1080" y="494" width="260" height="78" as="geometry" />
        </mxCell>
        <mxCell id="14" value="Phone Call Inquiry" style="whiteSpace=wrap;strokeWidth=2;" parent="1" vertex="1">
          <mxGeometry x="1114" y="263" width="190" height="54" as="geometry" />
        </mxCell>
        <mxCell id="15" value="Distributor inquires" style="curved=1;startArrow=none;endArrow=block;exitX=0.24;exitY=1;entryX=0.5;entryY=0;" parent="1" source="2" target="3" edge="1">
          <mxGeometry relative="1" as="geometry">
            <Array as="points">
              <mxPoint x="957" y="123" />
            </Array>
          </mxGeometry>
        </mxCell>
        <mxCell id="16" value="One or Many Products" style="curved=1;startArrow=none;endArrow=block;exitX=0;exitY=0.89;entryX=0.31;entryY=0;" parent="1" source="3" target="4" edge="1">
          <mxGeometry relative="1" as="geometry">
            <Array as="points">
              <mxPoint x="693" y="238" />
              <mxPoint x="693" y="354" />
            </Array>
          </mxGeometry>
        </mxCell>
        <mxCell id="17" value="" style="curved=1;startArrow=none;endArrow=block;exitX=0.5;exitY=1;entryX=0.5;entryY=0;" parent="1" source="4" target="5" edge="1">
          <mxGeometry relative="1" as="geometry">
            <Array as="points" />
          </mxGeometry>
        </mxCell>
        <mxCell id="18" value="Combination of Color, Material, Quality" style="curved=1;startArrow=none;endArrow=block;exitX=0;exitY=0.72;entryX=0.5;entryY=-0.01;" parent="1" source="5" target="6" edge="1">
          <mxGeometry relative="1" as="geometry">
            <Array as="points">
              <mxPoint x="138" y="617" />
            </Array>
          </mxGeometry>
        </mxCell>
        <mxCell id="19" value="" style="curved=1;startArrow=none;endArrow=block;exitX=0;exitY=0.95;entryX=0.5;entryY=-0.01;" parent="1" source="5" target="7" edge="1">
          <mxGeometry relative="1" as="geometry">
            <Array as="points">
              <mxPoint x="448" y="617" />
            </Array>
          </mxGeometry>
        </mxCell>
        <mxCell id="20" value="" style="curved=1;startArrow=none;endArrow=block;exitX=0.5;exitY=1;entryX=0.5;entryY=-0.01;" parent="1" source="5" target="8" edge="1">
          <mxGeometry relative="1" as="geometry">
            <Array as="points" />
          </mxGeometry>
        </mxCell>
        <mxCell id="21" value="" style="curved=1;startArrow=none;endArrow=block;exitX=1;exitY=0.95;entryX=0.5;entryY=-0.01;" parent="1" source="5" target="9" edge="1">
          <mxGeometry relative="1" as="geometry">
            <Array as="points">
              <mxPoint x="1068" y="617" />
            </Array>
          </mxGeometry>
        </mxCell>
        <mxCell id="22" value="" style="curved=1;startArrow=none;endArrow=block;exitX=1;exitY=0.73;entryX=0.5;entryY=-0.01;" parent="1" source="5" target="10" edge="1">
          <mxGeometry relative="1" as="geometry">
            <Array as="points">
              <mxPoint x="1352" y="617" />
            </Array>
          </mxGeometry>
        </mxCell>
        <mxCell id="23" value="" style="curved=1;startArrow=none;endArrow=block;exitX=0.48;exitY=1;entryX=0.5;entryY=0;" parent="1" source="3" target="11" edge="1">
          <mxGeometry relative="1" as="geometry">
            <Array as="points">
              <mxPoint x="947" y="238" />
            </Array>
          </mxGeometry>
        </mxCell>
        <mxCell id="24" value="Rates Updated" style="curved=1;startArrow=none;endArrow=block;exitX=0.5;exitY=1;entryX=0.22;entryY=0;" parent="1" source="11" target="12" edge="1">
          <mxGeometry relative="1" as="geometry">
            <Array as="points">
              <mxPoint x="947" y="354" />
            </Array>
          </mxGeometry>
        </mxCell>
        <mxCell id="25" value="" style="curved=1;startArrow=none;endArrow=block;exitX=0.5;exitY=1;entryX=0.22;entryY=0;" parent="1" source="12" target="13" edge="1">
          <mxGeometry relative="1" as="geometry">
            <Array as="points">
              <mxPoint x="1089" y="469" />
            </Array>
          </mxGeometry>
        </mxCell>
        <mxCell id="26" value="" style="curved=1;startArrow=none;endArrow=block;exitX=0.53;exitY=1;entryX=0;entryY=0.12;" parent="1" source="3" target="14" edge="1">
          <mxGeometry relative="1" as="geometry">
            <Array as="points">
              <mxPoint x="967" y="238" />
            </Array>
          </mxGeometry>
        </mxCell>
        <mxCell id="27" value="Similar Process" style="curved=1;startArrow=none;endArrow=block;exitX=0.53;exitY=0;entryX=0.76;entryY=1;" parent="1" source="14" target="2" edge="1">
          <mxGeometry relative="1" as="geometry">
            <Array as="points">
              <mxPoint x="1219" y="238" />
              <mxPoint x="1219" y="123" />
            </Array>
          </mxGeometry>
        </mxCell>
        <mxCell id="28" value="One or Many Products" style="curved=1;startArrow=none;endArrow=block;exitX=0;exitY=0.77;entryX=0.61;entryY=0;" parent="1" source="14" target="4" edge="1">
          <mxGeometry relative="1" as="geometry">
            <Array as="points">
              <mxPoint x="793" y="354" />
            </Array>
          </mxGeometry>
        </mxCell>
        <mxCell id="29" value="Rates Updated" style="curved=1;startArrow=none;endArrow=block;exitX=0.33;exitY=1;entryX=0.58;entryY=0;" parent="1" source="14" target="12" edge="1">
          <mxGeometry relative="1" as="geometry">
            <Array as="points">
              <mxPoint x="1132" y="354" />
            </Array>
          </mxGeometry>
        </mxCell>
        <mxCell id="30" value="Automation Responds with Rates" style="curved=1;startArrow=none;endArrow=block;exitX=0.85;exitY=1;entryX=0.87;entryY=0;" parent="1" source="14" target="13" edge="1">
          <mxGeometry relative="1" as="geometry">
            <Array as="points">
              <mxPoint x="1367" y="354" />
              <mxPoint x="1367" y="469" />
            </Array>
          </mxGeometry>
        </mxCell>
      </root>
    </mxGraphModel>
  </diagram>
</mxfile>
